<svg
  xmlns="http://www.w3.org/2000/svg"
  xmlns:xlink="http://www.w3.org/1999/xlink"
  viewBox="0 0 500 100"
  width="100%"
  height="auto"
  preserveAspectRatio="xMidYMid meet"
  data-app="Xyris">
  <defs>
    <path id="reuse-0"
      d="M255.908 19.822h3.544l.101.1V80.18h-3.544l-.1-.102zm-169.73 8.506h9.621l.202.406h1.823l.101.404h1.216v.404h1.215v.406h1.215v2.026l-.405.101v2.228l-.406.203v1.417l-.404.102v1.215q-.744-.244-.406.81l-.809.406v-.406h-1.519l-.203-.404h-1.418l-.202-.407h-6.786v.407h-1.114q.16.657-.911.404v.406h-.405v.403h-.405v.407h-.405v.404h-.405v.405l-.811.405v.81h-.405v.812h-.404q.338 1.052-.406.81v1.519l-.405.202v7.595l.405.102v1.418l.406.1v1.215l.809.405v.81h.406v.407h.405v.404h.405v.406h.405l.405.81h.81v.404h.81v.405q1.072-.252.912.406h7.19v-.406h1.114l.101-.404h1.215v-.406h1.215q-.202.608.406.405v.81h.404v1.114l.406.101v1.215l.405.102v1.823l.405.202v2.735q-1.072-.254-.91.405H99.95l-.1.406h-1.115l-.101.404h-2.227l-.203.406H86.178l-.102-.406h-1.417l-.202-.404h-1.52v-.406h-.81v-.405h-.81v-.405h-.709q.16-.658-.912-.405v-.406h-.405l-.404-.81h-.811v-.404h-.405v-.407h-.405v-.403h-.405v-.405h-.405v-.405l-.811-.406v-.81l-.809-.404v-.811h-.406v-.81h-.405v-.81h-.405q.339-1.054-.405-.81v-1.215h-.405v-1.217l-.405-.1v-1.824L72 53.344V43.316l.405-.102v-1.822l.405-.102v-1.215h.405V38.86h.405v-.809h.405v-.708q.658.158.405-.911l.81-.406v-.81l.811-.406V34h.405v-.405h.405v-.404h.405v-.405h.405l.405-.811h.811l.404-.81h.811l.404-.81h.811v-.405h.81v-.407q1.053.34.81-.404h1.52l.202-.405h1.519zm29.975 0h10.533v.406l.81.1v4.76h-.405v1.52l-.405.1v1.217h-.405v1.215h-.405l-.405.81h-.81v-.406h-1.216l-.1-.404h-3.14v.404h-1.114q.16.659-.91.406v.403h-.407v.407h-.405v.404l-.81.405v.811h-.406q.254 1.07-.404.911v1.52l-.405.1v25.015h-4.76l-.1.404h-1.217l-.1-.404h-4.659l-.1-.103V43.721l.403-.1v-2.635q.69.165.406-1.62l.405-.1V38.05h.405q-.254-1.073.405-.912v-1.114l.81-.405v-.71q.66.162.405-.91h.405v-.406h.405v-.404h.406v-.405h.404v-.406h.406v-.405h.405v-.404h.405v-.407h.405l.405-.81h.81v-.405h.81v-.405h.81v-.404q1.053.338.811-.405h1.62zm23.901 0h8.81l.202.406h1.42l.1.404h1.216v.404h1.215v.406h.708q-.16.66.911.406l.406.81h.81v.406h.405v.404h.406v.405h.404v.406h.405v.405h.406v.404h.404V34h.406v.405l.81.405v.81l.81.406v.81h.405v.81h.405q-.338 1.053.405.81v1.215h.405v1.216l.405.1v1.824l.406.203v2.633l.405.201v5.57l-.405.102v2.633l-.406.203v1.418l-.405.1v1.217h-.405v1.214h-.405v.81h-.405v.81h-.405v.71q-.659-.16-.405.91h-.405v.406l-.81.405v.81h-.406v.406h-.404v.404h-.406l-.405.81h-.81l-.405.81h-.81l-.406.811h-.809v.404h-.81v.406q-1.054-.338-.81.406h-1.52l-.202.404h-1.419l-.202.406h-8.81v-.406h-1.519l-.1-.404h-1.217v-.406h-1.215v-.405h-.709q.159-.658-.912-.405l-.405-.81h-.81v-.406h-.405v-.404h-.405v-.406h-.405v-.405h-.405v-.404h-.405v-.405h-.405v-.405l-.81-.406v-.81l-.81-.404v-.811h-.405v-.81h-.406v-.81h-.405q.338-1.054-.405-.81v-1.215l-.405-.102v-1.419l-.405-.202v-1.418l-.405-.201V43.72l.405-.1v-1.822l.405-.204v-1.519h.405q-.338-1.053.405-.81V38.05h.405v-.708q.66.158.406-.911l.81-.406v-.81l.81-.406V34h.405v-.405h.405v-.404h.405v-.405h.405v-.406h.405l.405-.81h.811l.404-.81h.811v-.405h.81v-.405h.811v-.407q1.051.34.81-.404h1.215l.101-.405h1.52zm2.431 8.506v.405q-1.013-.202-.81.407h-.81v.404h-.81l-.406.81h-.406q.203 1.013-.404 1.014v.606h-.405v.81h-.406v1.215l-.404.203v1.824h-.406v8.1l.406.204v1.822h.404v1.215q.81-.201.406.812h.405v.81l.81.405v.404h.405v.405h.405v.405h.405v.406h1.215l.203.404h1.417v.406h2.026l.203-.405h1.417q-.203-.81.81-.405l.405-.81h.811q-.202-.608.405-.406v-.81l.81-.404q-.203-1.015.405-.812v-1.215h.405q-.203-1.823.406-1.62V50.81l.404-.203V46.76l-.404-.203v-3.038l-.406-.203v-1.013l-.405-.201v-1.013q-.608 0-.405-1.014l-.81-.405v-.81l-.81-.404v-.406h-.81l-.405-.81h-1.216v-.406zm36.457-8.507h7.595l.203.406h1.822l.102.406h1.215v.404h1.216q-.244.742.81.406l.405.81h.81l.405.81h.81v.405h.405v.405h.406v.406h.404v.405h.405v.404h.405V34l.811.405v.81l.81.406v.81h.405v.81h.405v.81h.405q-.338 1.055.405.81v1.52l.405.1v1.216l.406.102v2.227l.404.203v8h-.404v1.923l-.406.102v1.215h-.405v1.216h-.405V57.9h-.405v.709q-.659-.16-.405.91l-.81.406v.81l-.81.406v.809h-.406v.405h-.405v.406h-.405v.404h-.404v.406h-.406l-.405.81h-.81l-.405.81h-.81l-.406.81h-.809v.405h-.81v.404q-1.055-.338-.81.406h-1.216v.406h-1.216l-.1.404h-1.824l-.202.406h-9.216v11.746h-10.937v-32.71l.405-.203v-4.252l.405-.203v-1.418l.405-.203v-1.417l.405-.102v-1.215h.405v-.81h.405v-.81h.405v-.71q.659.16.406-.91h.405v-.406h.404v-.404l.811-.406v-.81h.405l.405-.81h.81v-.405h.405l.406-.81h.81l.405-.81h.81v-.405h.81v-.407q1.053.34.81-.404h1.52l.202-.405h1.52zm1.215 9.318q.203.81-.81.405v.406h-.81l-.405.81h-.406v.81l-.809.404q.202 1.014-.406 1.014v1.011l-.405.203v1.824h-.405v14.583h.81l.203.404h2.633v.406h1.215l.202-.405h2.23v-.406h1.214v-.404h.81l.405-.81h.811l.404-.81h.405v-.812l.811-.404q-.405-1.012.405-.81v-1.215h.405v-1.216h.404V50l.406-.203V45.95l-.406-.203V43.52l-.404-.203v-1.215h-.405v-1.215l-.81-.406v-.81l-.81-.404v-.407h-.405v-.404h-.81v-.404q-1.014.201-.81-.406zm32.001-9.318h9.622l.201.406h1.42l.201.406h1.52v.404h.81v.406h.81v.404h.71q-.162.657.91.406v.404h.405v.407h.405v.404h.406v.405h.404v.406h.405v.405l.81.404v.81l.811.405q-.338 1.055.404.81v1.215h.406v1.216l.405.102v1.417l.405.203v26.634q-1.071-.253-.912.404h-1.519l-.1.406h-1.419l-.202.406h-1.823l-.202.404h-2.228l-.203.406h-11.646l-.1-.406h-1.824l-.1-.404h-1.217v-.406h-1.215v-.405h-.81v-.405h-.709q.16-.658-.91-.405v-.406h-.407v-.404h-.405v-.406h-.405v-.404h-.405v-.407h-.405v-.403l-.81-.405v-.81h-.405v-.812h-.405q.338-1.05-.405-.81V59.52l-.405-.1v-7.595h.405v-1.216q.743.243.405-.81l.81-.406v-.81h.405v-.404h.405v-.405h.405v-.407h.405v-.404h.405v-.406h.405l.406-.808h.81v-.406h.81v-.405h.708q-.159-.659.912-.405v-.405h1.215l.102-.407h1.417l.203-.404h1.823l.203-.405h8.304l.101-.102v-2.328h-.405v-.71q-.659.161-.405-.912h-.405l-.406-.809h-.809v-.404q-1.055.337-.81-.407h-1.925l-.203-.404h-4.759l-.102.404h-2.228l-.202.407h-1.418l-.1.404h-1.52q.16.659-.91.406v-.81h-.407v-.812h-.405q.338-1.05-.405-.81V34.81l-.405-.1v-1.824l-.405-.203v-2.329q1.072.254.911-.405h1.115l.1-.405h1.115l.101-.404h1.823l.203-.405h2.228zm5.267 21.47v.406h-1.418l-.203.404h-1.012q0 .608-1.013.406l-.405.81h-.405v.405h-.405v.81h-.406v4.052h.406v.81l.81.404v.405h.405v.405q1.013-.202 1.013.406h1.012v.404h6.482q-.203-.607.81-.404v-9.318h-1.215v-.404zm66.433-18.633h26.23l.202.406h1.823l.203.404h1.52v.405q1.052-.338.808.406h1.216q-.243.742.811.405l.404.81h.811l.404.81h.811v.404h.404v.406h.406v.405h.405l.405.81h.81v-.81l.81-.405v-.81h.406v-.406h.404l.405-.81h.81l.406-.81h.81v-.405h.81v-.405q1.053.338.81-.404h1.52l.202-.407h36.356v.407h1.62v.404h.811v.405h.708q-.159.658.912.406v.405h.405l.405.81h.81q-.203.607.406.404v.81l.81.406v.81h.405v.81h.405v.81h.405v.81h.405v.81h.405v.81h.405v.81h.405v.812h.406v.81h.404q-.337 1.053.405.809v1.216h.406v.81h.404v.81h.404v.81h.407v.81h.407v.81h.402v.81h.407v.81h.401q-.337 1.055.408.81v1.215h.401v.812h.413v.81h.407v.81h.401v.81h.407v.709q.653-.16.407.912l.803.405q-.204-.608.407-.405v-.81h.402v-1.217h.407v-.81h.412v-.81h.402v-.81h.407v-.81h.401v-.81h.402v-.81h.407v-.81h.401q-.328-1.054.407-.81v-1.215h.407v-.81h.407v-.812h.407v-.81h.407v-.81h.402v-.81h.407v-.81h.401v-.81h.407q-.337-1.052.407-.81v-1.215h.407v-.81h.396v-.81h.407v-.81h.402v-.812h.407v-.81h.407v-.81h.401q-.328-1.051.407-.81V33.19h.407v-.709c.435.107.572-.197.402-.91.43.1.594-.035.511-.407H407v2.431h-.396v.81h-.407v.81h-.407v.81h-.402q.329 1.054-.407.81v1.216h-.407v.81h-.4v.81h-.408v.81h-.402v.81h-.412v.812h-.407v.81h-.402v.809h-.407v.81h-.407v.81h-.4v.81h-.408v.71c-.44-.106-.572.197-.407.912h-.402v1.214h-.4v.81h-.408v.81h-.407v.81h-.402v.811h-.407v.81h-.4v.81h-.408v.81h-.407v.81h-.402v.81h-.407v.812h-.412c.231.701.1.971-.402.81v1.215h-.407v.81h-.407v.81h-.4v.81h-.408v.81h-.407v.81h-.402v.81h-.407v.81h-.396v.81h-.407v.71q-.67-.16-.407.911-.611-.203-.407.406h-.808v.404c-.429-.1-.594.034-.512.406h-12.048v-.406h-.81v-.404h-.405v-.406h-.404v-.405l-.81-.405v-.81h-.406v-.81h-.405v-.812h-.405v-.808h-.405v-.81h-.405v-.812h-.406v-.81h-.405v-.81h-.404v-.81h-.406q.338-1.051-.405-.81V57.09h-.405v-.81h-.405v-.81h-.405v-.81h-.405v-.81h-.405v-.81h-.405v-.81h-.405v-.812h-.406v-.81h-.405v-.81h-.404v-.81h-.406v-.81h-.405v-.81h-.405v-.81h-.405v-.81h-.405v-.71q-.659.16-.405-.91h-.405v-.81h-.405v-.812h-.406v-.81h-.404l-.405-.809h-.81v-.406q-1.054.34-.81-.404h-1.216l-.1-.406h-22.99v.405h-.708q.159.66-.912.405.338 1.055-.405.81v2.837h.405v.404h.404v.406q.639-.151.508.405h16.405l.203.406h2.632l.203.404h1.52v.404h.708q-.16.66.911.407l.406.81h.81v.404h.405v.404l.81.406v.81l.811.406v.708q.658-.158.404.913h.406v1.215l.405.1v1.418l.404.203v4.355l-.404.1v1.823l-.405.103v1.215h-.406v.707q-.658-.158-.404.911h-.406v.407l-.809.404v.81h-.81v.406h-.406l-.405.81h-.81v.405h-.81v.406q-1.055-.339-.81.404h-1.216l-.102.406h-23.798v-.406h-.405v-.404h-.405q.152-.64-.405-.507V60.33q.638.152.506-.405h18.026l.102-.405h.81v-.406l.81-.404v-3.242h-.405v-.405h-.405v-.405q-.638.154-.506-.404h-18.837l-.202-.405h-1.823l-.1-.405h-1.217v-.406h-.81q.202-.608-.405-.405v1.518l-.405.203v1.419l-.406.1v1.217h-.404v1.214h-.406v.81h-.405v.71q-.658-.16-.404.91l-.81.407v.809h-.406v.405h-.405v.406h-.405v.404h-.405v.406h-.405v.404h-.406v.405h-.404l-.405.81h-.81l-.406.811h-.809v.405h-.81v.404q-1.055-.338-.81.406h-1.115l-.1.406h-1.217v.404h-1.924l-.202.406h-28.256V45.748q1.073.252.912-.406h8.811l.102.406h1.52v.404l.808.404v.81l.406.102V59.52q.638-.15.506.406h9.621v-.405h1.62v-.406h.811v-.404h.708q-.16-.66.912-.406V57.9h.405v-.405h.405v-.405h.405v-.406l.81-.405v-.81l.81-.406v-1.215h.405v-1.215l.405-.1v-5.57h-.405v-1.116l-.405-.1v-1.215l-.81-.405v-.81h-.405v-.406h-.405v-.406h-.405l-.405-.81h-.81l-.406-.809q-1.07.252-.91-.406h-1.115l-.1-.404h-1.824l-.202-.406h-21.775V32.38h.406l.405-.81h.81z" />
  </defs>
  <g style="transform-box:fill-box">
    <g clip-path="url(#a)">
      <use xlink:href="#reuse-0">
        <animate attributeName="fill" begin="0" calcMode="spline" dur="12"
          keySplines="0 0 1 1; 0 0 1 1; 0 0 1 1"
          keyTimes="0; 0.20833333333333334; 0.2916666666666667; 1" repeatCount="indefinite"
          values="#002664; #002664; #fff; #fff" />
      </use>
      <clipPath id="a">
        <path stroke="#3f5787"
          d="M55.096 20.258h-384.672v59.92H48.388L66.4 61.799 33.361 58.12 7.26 47.094v-8.088l4.412-.735-6.985-16.175h17.37l22.332 13.97H71.96l-.045-1.47z"
          transform-origin="0 0">
          <animateTransform additive="sum" attributeName="transform" begin="0"
            calcMode="spline" dur="12" keySplines="0 0 1 1; 0 0 1 1; 0 0 1 1"
            keyTimes="0; 0.05669517442847099; 0.17990523216086937; 1" repeatCount="indefinite"
            type="translate" values="0, 0; 0, 0; 401, 0; 401, 0" />
        </path>
      </clipPath>
    </g>
    <path
      d="M-139.022 12.688h27.85c-.08.336.07.46.46.367v.367h.37v.368h.73l.37.736h.74l.36.735h.74v.368h.37l.36.734h.74l.37.736h.73v.367h.37l.37.735h.73l.37.735h.73l.37.736h.74v.367h.37l.36.735h.74l.37.736h.73v.367l.736.369v.367h.735l.367.736h.736l.367.735h.736v.367h.367l.368.735h.735l.368.736h.735v.367h.367l.368.735h.735l.368.735h.735v.369h.368l.367.735h.735l.368.735h.735l.368.735h.735v.368h.368l.367.735h.736l.367.734h.735v.368h.368l.368.736h.735l.367.734h.736l.367.736h.736v.367h.367v.369q.58-.138.46.367h40.988l.184.367h6.065l.184.369h3.86l.184.367h2.757l.184.367h2.39l.183.367h2.022l.184.369h1.654l.184.367h1.654l.092.367h1.38l.09.369h1.103l.092.367h1.38v.367q.954-.306.734.368h1.103v.367h.735v.368h.735v.368q.956-.306.735.367h1.103v.368h.735v.368h.644q-.144.597.827.367l.368.735h.735l.367.735h.736v.368h.367v.369h.368v.367h.367l.368.734h.368v.736l.735.367v3.677H-.43v.736h-.367v.367h-.368v.367h-.368v.367H-1.9v.368h-.368l-.367.735h-.736q.22.675-.735.368l-.367.736h-1.103v.367q-.956-.306-.736.367h-1.102v.368h-1.103v.369H-9.62l-.092.367h-1.287l-.09.367h-1.104l-.092.367h-1.287l-.184.369h-1.286l-.184.367h-1.287l-.184.367h-1.286q.147.626-1.47.369l-.184.367h-1.655l-.092.367h-1.378l-.184.368H-24.6l-.092.367h-1.746l-.184.368h-2.022l-.184.367h-2.389l-.184.369h-3.86l-.184.367h-46.502q.12.506-.46.367v.368h-.367v.368h-.736l-.367.736h-.735l-.368.734h-.735l-.368.736h-.735l-.368.734h-.735l-.368.737h-.735l-.367.734h-.736l-.367.736h-.735l-.368.734h-.735l-.368.737h-.735v.366h-.368l-.367.735h-.735l-.368.736h-.735l-.368.736h-.735l-.368.734h-.735l-.368.736h-.73l-.37.734h-.74l-.36.737h-.74l-.37.734h-.73l-.37.736h-.74l-.36.734h-.74v.368h-.37l-.36.736h-.74l-.37.735h-.73l-.37.736h-.73l-.37.734h-.74l-.37.736h-.73l-.37.734h-.73l-.37.735h-.74l-.36.736h-.74l-.37.736h-.73v.368h-.37l-.37.735h-.73l-.37.735h-.74l-.36.735c-.64-.205-.89-.082-.74.368h-26.83v-.368h.36v-.367h.37v-.368h.37v-.368h.37v-.367h.36v-.368h.37v-.367h.37v-.368h.37v-.368h.37v-.368h.36v-.367h.37V82.9h.37v-.367h.37v-.368h.36v-.367h.37v-.368h.37v-.368h.37v-.367h.36v-.367h.37v-.368h.37v-.367h.37v-.368h.36v-.367h.37v-.368h.37v-.367h.37v-.369h.36v-.368h.37v-.367h.37v-.368h.37v-.367h.37v-.368h.36v-.367h.37v-.368h.37v-.367h.37v-.368h.36v-.367h.37v-.368h.37v-.367h.37v-.368h.36v-.368h.37v-.368h.37v-.367h.37v-.368h.36v-.367h.37v-.369h.37v-.367h.37v-.368h.36v-.367h.37V69.3h.37v-.368h.37v-.367h.36v-.367h.37v-.368h.37v-.367h.37v-.368h.36v-.367h.37v-.368h.37v-.368h.37v-.367h.36v-.368h.37v-.368h.37v-.368h.37v-.367h.37v-.368l.73-.367v-.367h.37v-.369h.37v-.367h.36v-.367h.37v-.368h-6.52l-.19-.368h-4.59l-.19-.368h-3.49l-.18-.367h-3.13l-.18-.367h-2.76l-.18-.368h-2.76l-.18-.368h-2.03l-.18-.367h-2.39l-.18-.368h-2.02l-.19-.367h-2.02l-.18-.368h-1.29l-.09-.369h-1.1v-.366h-.74V56.8c-.64.204-.88.081-.74-.367h-1.1v-.368h-.73v-.369c-.64.206-.89.082-.74-.367h-1.1v-.367h-.74v-.367c-.63.204-.88.08-.73-.368h-1.1v-.369h-.65c.1-.398-.18-.52-.83-.367v-.367h-1.1v-.368h-.64c.1-.398-.18-.52-.83-.367v-.368h-1.1v-.367h-.64c.09-.398-.18-.522-.83-.369v-.367h-1.1v-.367h-.65c.1-.398-.18-.521-.82-.368v-.367h-1.11v-.368h-.64c.1-.398-.18-.521-.83-.368v-.367h-1.1v-.368h-.74v-.367h-.73v-.368h-.64c.09-.398-.18-.521-.83-.368V38.42h1.38l.18-.367h2.85v-1.47h-.37v-.736h-.37v-.736h-.36v-.734h-.37c.2-.638.08-.883-.37-.736V32.54h-.37v-.736h-.36v-.736h-.37v-.735h-.37c.21-.637.08-.881-.37-.735v-1.103h-.36v-.735h-.37v-.735h-.37v-.735h-.37q.315-.957-.36-.736v-1.102h-.37v-.736h-.37c.2-.637.08-.881-.37-.735v-1.102h17.65c-.15.45.1.573.73.367l.37.735h.64c-.09.398.18.521.83.369l.37.735h.73l.37.735h.65c-.1.398.17.52.82.367l.37.736h.73l.37.735h.74c-.15.45.1.572.73.367l.37.735h.64c-.09.398.18.521.83.369l.37.735h.73l.37.735h.65c-.1.398.17.52.82.367l.37.736h.73l.37.735h.65c-.1.398.18.52.82.367l.37.735h.74l.36.736h.65c-.1.398.18.52.82.367l.37.736h.65c-.1.398.17.52.82.367l.37.736c.65-.153.92-.031.83.367h27.48v-.367c-.39.092-.54-.031-.46-.368h-2.12l-.09.367h-2.48v-.367h.37v-.367h.36l.37-.736h.74v-.367h.36l.37-.736h-.37v-.367h-.36v-.369h-.37v-.367h-.37l-.37-.736h-.73v-.366h-.37v-.369h-.37v-.367h-.36v-.367h-.37v-.368h-.37v-.367h-.37v-.369h-.36v-.366h-.37v-.369h-.37v-.367h-.37v-.367h-.37l-.36-.735h-.74v-.368h-.37v-.369h-.36v-.367h-.37v-.367h-.37v-.367h-.37v-.369h-.36v-.367h-.37v-.367h-.37v-.369h-.37v-.367h-.36v-.367h-.37l-.37-.735h-.73v-.369h-.37v-.367h-.37v-.367h-.37v-.369h-.36v-.367h-.37v-.367h-.37v-.369h-.37v-.366h-.36V18.2h-.37v-.367h-.37v-.367l-.73-.368v-.367h-.74v-.369h-.37v-.367h-.37v-.367h-.36v-.368h-.37v-.367h-.37v-.369h-.37v-.367h-.36v-.367h-.37v-.369h-.37zm8.83 3.307.36.737h.37v.367h.37v.367h.37v.368h.36v.367h.37v.369h.37v.366h.37v.369h.36v.367h.37v.367h.74l.36.735h.37v.368h.37v.369h.37v.367h.36v.367h.37v.367h.37v.369h.37v.367h.37v.367h.36v.369h.37v.367h.37v.367h.73l.37.735h.37v.369h.37v.367h.36v.367h.37v.369h.37v.367h.37v.367h.36v.369h.37v.366h.37v.369h.37v.367h.36v.367h.74l.37.735h.37v.369h.36v.366h.37v.369h.37v.367h.37v.367h.36v.368h.37v.369h.37v.367h.37v.367h.36v.367h.37v.368h.74l.36.736h.37v.367h.37v.367h24.262q.184-.734-.735-.366l-.368-.735h-.735l-.368-.736h-.367v-.367h-.736l-.367-.736h-.735l-.368-.736h-.735l-.368-.735h-.367v-.367h-.736l-.367-.736h-.735l-.368-.735h-.368v-.367h-.735l-.367-.736h-.736l-.367-.735h-.368v-.367h-.735l-.368-.735h-.735l-.368-.735h-.73l-.37-.736h-.37v-.367h-.73l-.37-.735h-.74l-.37-.735h-.36v-.369h-.74l-.37-.735h-.73l-.37-.735h-.73l-.37-.736h-.37v-.367h-.73l-.37-.735h-.74l-.36-.736h-.37v-.366h-.74l-.37-.736h-.73l-.37-.735h-.73l-.37-.736h-.37v-.367zm-46.69 9.192c-.12.366 0 .49.37.366v.736h.36v.735h.37v1.104c.49-.123.62.122.37.735h.37v.735h.36v.735h.37v.735h.37v1.102c.49-.122.61.123.37.736h.37v.736h.36v.734h.37v.736h.37v1.102h.37v.736c.36-.123.49 0 .36.367h1.84l.19-.367h3.12l.18-.367h2.76l.19-.368h2.75l.19-.369h11.21v-.366c-.62.122-.86 0-.74-.368h-.73l-.37-.736c-.61.245-.86.123-.74-.367h-.73l-.37-.736h-.73l-.37-.735c-.61.123-.86 0-.74-.367h-.73l-.37-.735h-.73l-.37-.735c-.62.122-.86 0-.74-.369h-.73l-.37-.735h-.74l-.36-.735c-.62.123-.86 0-.74-.367h-.73l-.37-.736c-.61.123-.86 0-.74-.367h-.73l-.37-.735h-.73l-.37-.735c-.61.122-.86 0-.74-.369h-.73v-.367zm17.28 13.969v.367h-2.76l-.18.367h-2.76l-.19.368h-2.75l-.19.367h-3.12l-.18.368h-2.76l-.19.368h-1.47v3.677h.74c-.12.367.12.49.73.367v.367h.74v.367h1.1v.368c.62-.121.92 0 .92.369h.55v.367h.74v.367h1.1v.368c.61-.123.92 0 .92.367h.55v.369h1.1v.367c.62-.123.92 0 .92.367h.55v.368h1.11c-.12.49.12.612.73.367v.368h.74v.367h1.1c-.12.49.12.614.74.368v.368h.73v.367h1.1c-.12.49.13.614.74.368v.367h.73v.368h1.11c-.12.49.12.613.73.368v.367h.74v.368h1.1l.19.369h.91v.367h2.21l.18.367h2.03l.18.367h2.39l.18.368h2.39l.19.369h2.39l.18.367h3.12l.19.367h2.76l.18.367h3.86l.18.369h4.6v.367h9.19l.36-.736h.37v-.366h.37V56.8h.37v-.367h.37v-.368h.36v-.369h.37v-.367h.37v-.367h.37v-.367h.36v-.368h.37v-.369h.37v-.367h.73l.37.736h.37v.367h.37v.367h.36v.368h.74v.736h-.37v.367h-.37v.367h-.36v.369l-.74.367v.367h-.37v.369h-.36v.367h-.37v.367h-.37v.367h-.37v.369h-.36v.367h-.37v.367h-.37v.368h-.37v.367h-.36v.369h-.37v.367h-.37v.367h-.37v.368h-.37v.368h-.36v.367h-.37v.368h-.37v.368h-.37v.367h-.36v.368h-.37v.367h-.37v.369h-.37v.367h-.36v.368h-.37v.368h-.37v.367h-.37v.368h-.36v.367h-.37v.368h-.37v.367h-.37v.368h-.36v.367h-.37v.368h-.37v.367h-.37v.368h-.37v.367h-.36v.368h-.37v.368h-.37v.368h-.37v.367h-.36v.368h-.37v.367h-.37v.369h-.37v.367h-.36v.368h-.37v.367h-.37v.368h-.37v.368h-.36v.367h-.37v.367h-.37v.368h-.37v.367h-.36v.368h-.37v.367h-.37v.368h-.37v.368h-.36v.368h-.37v.368h-.37v.367h-.37v.368h-.36v.367h-.37v.368h-.37v.367h-.37v.368h-.36v.367h-.37v.368h-.37v.367h-.37v.368h-.37v.367h-.36v.368h-.37v.368h-.37v.368h16.91c-.12-.49.12-.614.74-.368l.36-.736h.74l.37-.735h.73l.37-.735h.73l.37-.735h.74l.37-.734h.36v-.368h.74l.37-.736h.73l.37-.734h.73l.37-.737h.74l.36-.734h.74l.37-.736h.73l.37-.734h.74l.36-.737h.74l.37-.734h.73l.37-.736h.37v-.367h.73l.37-.736h.73l.37-.734h.74l.37-.736h.73l.37-.734h.733l.367-.737h.736l.367-.734h.735l.368-.736h.735l.368-.734h.735l.368-.737h.735v-.366l.735-.368v-.368h.735l.368-.736h.735l.368-.735h.735l.368-.735h.735l.367-.735h.736l.367-.736h.736l.367-.734h.735l.368-.735h.735l.368-.735h.735l.368-.735h.735l.367-.736h.368v-.367h.735l.368-.735h.735l.368-.736h.735l.368-.736h1.102l.368.735h.368v.736l.735.367v.369h.367l-.367.735h-.368v.367h43.378l.184-.367h2.39l.183-.369h2.022l.184-.366h1.654l.184-.368h1.654l.184-.367h1.654l.184-.368h1.287l.183-.369h1.287l.184-.367h1.287l.183-.367h1.287l.184-.367h1.286l.184-.368h1.287l.184-.369h1.286v-.367h1.103l.184-.367h1.287q-.184-.552.735-.368v-.367h1.103q-.184-.736.735-.368v-.367h.735v-.369h.735l.368-.735h.735q-.184-.551.368-.367v-.735h.367q.184-.552-.367-.368v-.736l-.735-.367v-.367h-.368v-.368h-.368v-.367h-.367v-.368h-.736v-.369q-.918.184-.735-.367h-.735v-.367h-.735v-.367h-.735v-.368h-.736V44.3h-.735v-.367h-.735v-.367h-1.47q.183.735-.736.367v.367h-.735v.368h-.735v.369h-.735v.367h-1.103q.183.735-.735.367v.367h-.736v.368h-.735v.369h-.735v.367h-1.103q.184.735-.735.367v.368h-.735v.367h-.736v.369h-.735v.367h-2.205l-.368-.736h-.368v-.367h-.367v-2.206l.735-.367v-.367h.368v-.368q.919.184.92-.369h.918q-.185-.734.735-.367v-.367h.735V43.2h.735v-.369h.735v-.367h1.103q-.183-.735.736-.367v-.369h.735v-.367h-1.655l-.183-.367h-2.022l-.184-.368h-2.389l-.184-.367h-3.125l-.184-.368h-4.227l-.184-.367h-6.066l-.183-.368z"
      fill="#002664" style="transform-box:fill-box">
      <animateTransform additive="sum" attributeName="transform" begin="0"
        calcMode="spline" dur="12" keySplines="0 0 1 1; 0 0 1 1"
        keyTimes="0; 0.20833333333333334; 1" repeatCount="indefinite" type="translate"
        values="0, 0; 682, 0; 682, 0" />
    </path>
    <animate attributeName="visibility" begin="0" calcMode="spline" dur="12"
      keySplines="0 0 1 1; 0 0 1 1" keyTimes="0; 0.3333333333333333; 1" repeatCount="indefinite"
      values="visible; hidden; hidden" />
  </g>
  <g>
    <g clip-path="url(#b)">
      <use xlink:href="#reuse-0">
        <animate attributeName="fill" begin="0" calcMode="spline" dur="12"
          keySplines="0 0 1 1; 0 0 1 1; 0 0 1 1" keyTimes="0; 0.5416666666666666; 0.625; 1"
          repeatCount="indefinite"
          values="#002664; #002664; #fff; #fff" />
      </use>
      <clipPath id="b">
        <path stroke="#3f5787"
          d="M-742.16 79.774V19.853H-335v7.4h-12.429v12.236h-10.706v13.384h-10.32V22.282h-37.1v30.495l-.09.096h-1.05v5.64l.38.86 13 19.884v.765l.252.125z"
          style="transform-box:fill-box" transform="translate(407)"
          transform-origin="center">
          <animateTransform additive="sum" attributeName="transform" begin="0"
            calcMode="spline" dur="12" keySplines="0 0 1 1; 0 0 1 1; 0 0 1 1"
            keyTimes="0; 0.3796114571536429; 0.5106986598716498; 1" repeatCount="indefinite"
            type="translate" values="0; 0; 407, 0; 407, 0" />
        </path>
      </clipPath>
    </g>
    <path
      d="M-71.123 12.688h32.12v12.236h13.001V37.16h9.177v8.413H-.096l.096.094v1.052l-.765.383v.765l-.764.382v.764l-.765.384v.764l-.765.383v.764l-.765.383v.764l-.765.383v.764l-.764.383v.764l-.765.383v.765l-.765.382v.764l-.765.383v.764l-.764.384v.764l-.765.383v.765l-.765.382v.764l-.765.383v.764l-.764.382v.765l-.765.382v.765l-.765.383v.764l-.765.383v.765l-.764.383v.764l-.765.382v.765l-.765.382v.766l-.765.382v.765l-.764.382v.764l-.765.383v.764l-.765.383v.764l-.765.383v.764l-.764.383v.765l-.765.383v.764l-.765.383v.765l-.765.382v.764l-.765.383-.095.764H-126.95c.13-.382 0-.51-.38-.382v-.764l-.77-.383v-.764l-.76-.382v-.67c-.42.1-.54-.186-.38-.86l-.77-.383v-.764l-.76-.383v-.67q-.63.152-.39-.86l-.76-.382v-.764l-.77-.383v-.67c-.41.102-.54-.186-.38-.86l-.76-.382v-.764l-.77-.383v-.67c-.41.102-.54-.186-.38-.86l-.77-.382v-.764l-.76-.383v-.764l-.76-.383v-.67q-.63.152-.39-.86l-.76-.383v-.764l-.77-.383v-.669c-.41.102-.54-.185-.38-.86l-.76-.383v-.764l-.77-.383v-.668c-.41.1-.54-.186-.38-.86l-.77-.383v-.766l-.76-.381c.16-.674.03-.961-.38-.86v-5.64h1.05l.09-.096V19.952h37.1v30.59h10.32V37.16h10.706V24.924h13.001zm3.06 2.676v9.56h26.001v-9.56zm-71.507 7.265v27.915h31.74v-5.736h-8.61c0-.383-.31-.51-.95-.383v-.383h-.77c.26-.636.13-.892-.38-.764v-2.676l.77-.383v-.383h.76v-.381h9.18v-4.59h-8.99c0-.382-.32-.51-.95-.382.12-.383 0-.51-.39-.383v-.764h-.38v-2.294h.38v-.765c.39.127.51 0 .39-.383h.76v-.381h9.18V22.63zm58.505 4.971v9.56h24.473V27.6zm27.149 0v9.56h24.855V27.6zm-37.855 12.237v10.706h22.178V39.838zm24.855 0v10.706h13.383q-.192-.574.765-.383v-.381h.764l.383-.766h.764v-.381q.957.191.956-.383h.574v-.383h.765v-.382h.765v-.383h.764v-.382h.765v-.383h.765v-.381h.765v-6.118zm24.854 0v5.735h22.178v-5.735zm-2.294 8.795q.191.765-.765.382l-.382.764q-.956-.191-.765.383h-.765v.383h-.764v.382h-.765v.381h-.765l-.382.765h-.765v.383h-.765v.383q-.956-.19-.765.381h-89.476v.765l.76.383v.765l.77.383c-.13.636 0 .956.38.956v.573l.77.382v.764l.76.384v.764l.77.383c-.13.637 0 .956.38.956v.572l.76.383v.765l.77.383c-.13.636 0 .956.38.956v.572l.76.383v.764l.77.383v.766l.76.382c-.12.636 0 .956.39.956v.574l.76.381v.765l.77.382c-.13.638 0 .957.38.957v.573l.76.383v.765l.77.382v.764l.76.383v.764h105.54q-.192-.573.382-.382v-.764l.765-.383q-.192-.957.382-.764v-.765l.765-.382v-.766l.765-.382v-.765l.764-.383v-.763l.765-.384v-.764l.765-.382v-.766l.765-.382v-.764l.764-.382v-.765l.765-.383v-.764l.765-.383v-.764l.765-.384v-.764l.764-.383v-.764l.765-.383v-.764l.765-.383v-.764l.765-.383v-.764l.765-.383v-.765l.764-.383v-.764l.765-.383v-.764l.765-.383q-.191-.956.382-.765v-.764l.765-.383v-.763l.765-.383v-.383z"
      fill='#002664'
      style="transform-box:fill-box" transform-origin="center">
      <animateTransform additive="sum" attributeName="transform" begin="0"
        calcMode="spline" dur="12" keySplines="0 0 1 1;0 0 1 1;0 0 1 1"
        keyTimes="0; 0.3333333333333333; 0.5416666666666666; 1" repeatCount="indefinite"
        type="translate" values="0, 0; 0, 0; 644, 0; 644, 0" />
    </path>
    <animate attributeName="visibility" begin="0" calcMode="spline" dur="12"
      keySplines="0 0 1 1;0 0 1 1;0 0 1 1" keyTimes="0; 0.3333333333333333; 0.6666666666666666; 1"
      repeatCount="indefinite" values="hidden; visible; hidden; hidden" />
  </g>
  <g transform="translate(0 -2.298)">
    <g clip-path="url(#c)">
      <path
        d="M255.908 22.12h3.544l.101.1v60.257h-3.544l-.1-.102zm-169.73 8.505h9.621l.202.407h1.823l.101.404h1.216v.404h1.215v.406h1.215v2.026l-.405.102V36.6l-.406.203v1.417l-.404.102v1.215q-.744-.242-.406.81l-.809.406v-.405h-1.519l-.203-.405h-1.418l-.202-.407h-6.786v.407h-1.114q.16.657-.911.404v.406h-.405v.404h-.405v.405h-.405v.405h-.405v.405l-.811.406v.81h-.405v.81h-.404q.338 1.052-.406.81v1.52l-.405.202v7.596l.405.1v1.418l.406.102v1.215l.809.404v.81h.406v.407h.405v.405h.405v.404h.405l.405.81h.81v.406h.81v.404q1.072-.253.912.406h7.19v-.405h1.114l.101-.405h1.215v-.406h1.215q-.202.608.406.406v.81h.404v1.114l.406.1v1.216l.405.102v1.823l.405.201v2.735q-1.072-.254-.91.406H99.95l-.1.404h-1.115l-.101.406h-2.227l-.203.404H86.178l-.102-.404h-1.417l-.202-.406h-1.52v-.404h-.81v-.406h-.81v-.404h-.709q.16-.66-.912-.406v-.406h-.405l-.404-.81h-.811v-.404h-.405v-.407h-.405v-.404h-.405v-.404h-.405v-.406l-.811-.405v-.81l-.809-.405v-.81h-.406v-.81h-.405v-.81h-.405q.339-1.054-.405-.81v-1.215h-.405v-1.216l-.405-.102v-1.822L72 55.64V45.615l.405-.101V43.69l.405-.102v-1.215h.405v-1.217h.405v-.808h.405v-.71q.658.159.405-.91l.81-.407v-.81l.811-.404v-.81h.405v-.406h.405v-.405h.405v-.404h.405l.405-.811h.811l.404-.81h.811l.404-.81h.811v-.406h.81v-.406q1.053.34.81-.404h1.52l.202-.404h1.519zm29.975 0h10.533v.407l.81.1v4.76h-.405v1.52l-.405.1v1.216h-.405v1.215h-.405l-.405.81h-.81v-.404h-1.216l-.1-.405h-3.14v.404h-1.114q.16.658-.91.406v.404h-.407v.405h-.405v.405l-.81.405v.812h-.406q.254 1.07-.404.91v1.52l-.405.1V70.73h-4.76l-.1.404h-1.217l-.1-.404h-4.659l-.1-.103V46.02l.403-.1v-2.634q.69.163.406-1.62l.405-.102v-1.215h.405q-.254-1.07.405-.91v-1.116l.81-.405v-.709q.66.16.405-.91h.405v-.406h.405v-.405h.406v-.404h.404v-.407h.406v-.404h.405v-.404h.405v-.407h.405l.405-.81h.81v-.405h.81v-.406h.81v-.404q1.053.339.811-.404h1.62zm23.901 0h8.81l.202.407h1.42l.1.404h1.216v.404h1.215v.406h.708q-.16.66.911.405l.406.81h.81v.407h.405v.404h.406v.404h.404v.407h.405v.404h.406v.405h.404v.405h.406v.406l.81.404v.81l.81.405v.81h.405v.812h.405q-.338 1.051.405.81v1.215h.405v1.215l.405.1v1.824l.406.203v2.633l.405.201v5.57l-.405.101v2.633l-.406.204v1.418l-.405.1v1.217h-.405v1.215h-.405v.81h-.405v.81h-.405v.709q-.659-.16-.405.91h-.405v.406l-.81.405v.81h-.406v.406h-.404v.403h-.406l-.405.811h-.81l-.405.81h-.81l-.406.811h-.809v.405h-.81v.406q-1.054-.34-.81.404h-1.52l-.202.406h-1.419l-.202.404h-8.81v-.404h-1.519l-.1-.406h-1.217v-.404h-1.215v-.406h-.709q.159-.657-.912-.404l-.405-.811h-.81v-.406h-.405v-.404h-.405v-.406h-.405v-.406h-.405v-.404h-.405v-.404h-.405v-.406l-.81-.405v-.81l-.81-.405v-.81h-.405v-.81h-.406v-.81h-.405q.338-1.054-.405-.81v-1.215l-.405-.102v-1.419l-.405-.202v-1.417l-.405-.203V46.02l.405-.1v-1.823l.405-.203v-1.52h.405q-.338-1.051.405-.81v-1.215h.405v-.709q.66.159.406-.91l.81-.407v-.81l.81-.404v-.81h.405v-.406h.405v-.405h.405v-.404h.405v-.407h.405l.405-.809h.811l.404-.81h.811v-.406h.81v-.405h.811v-.406q1.051.34.81-.404h1.215l.101-.404h1.52zm2.431 8.508v.404q-1.013-.202-.81.407h-.81v.404h-.81l-.406.81h-.406q.203 1.013-.404 1.014v.607h-.405v.81h-.406v1.215l-.404.203v1.823h-.406v8.1l.406.203v1.823h.404v1.215q.81-.202.406.812h.405v.81l.81.404v.405h.405v.406h.405v.404h.405v.406h1.215l.203.404h1.417v.405h2.026l.203-.405h1.417q-.203-.81.81-.404l.405-.81h.811q-.202-.608.405-.406v-.81l.81-.404q-.203-1.014.405-.811v-1.215h.405q-.203-1.823.406-1.62v-2.633l.404-.203v-3.849l-.404-.203v-3.038l-.406-.202v-1.012l-.405-.202v-1.014q-.608 0-.405-1.013l-.81-.404v-.812l-.81-.403v-.405h-.81l-.405-.811h-1.216v-.405zm36.457-8.508h7.595l.203.407h1.822l.102.404h1.215v.404h1.216q-.244.745.81.406l.405.81h.81l.405.812h.81v.404h.405v.404h.406v.407h.404v.404h.405v.405h.405v.405l.811.406v.81l.81.404v.811h.405v.81h.405v.81h.405q-.338 1.055.405.81v1.52l.405.1v1.215l.406.102v2.229l.404.203v8h-.404v1.922l-.406.102v1.215h-.405v1.217h-.405v1.215h-.405v.709q-.659-.16-.405.91l-.81.405v.81l-.81.407v.809h-.406v.405h-.405v.405h-.405v.405h-.404v.406h-.406l-.405.81h-.81l-.405.81h-.81l-.406.81h-.809v.405h-.81v.405q-1.055-.338-.81.406h-1.216v.404h-1.216l-.1.406h-1.824l-.202.404h-9.216v11.748h-10.937v-32.71l.405-.204V45.31l.405-.203v-1.416l.405-.204V42.07l.405-.1v-1.215h.405v-.81h.405v-.812h.405v-.709q.659.16.406-.91h.405v-.405h.404v-.405l.811-.406v-.81h.405l.405-.81h.81v-.405h.405l.406-.81h.81l.405-.81h.81v-.406h.81v-.406q1.053.34.81-.404h1.52l.202-.404h1.52zm1.215 9.319q.203.808-.81.404v.406h-.81l-.405.81h-.406v.81l-.809.404q.202 1.013-.406 1.014v1.011l-.405.204v1.823h-.405v14.583h.81l.203.405h2.633v.404h1.215l.202-.404h2.23v-.405h1.214v-.405h.81l.405-.81h.811l.404-.81h.405v-.811l.811-.405q-.405-1.012.405-.81v-1.215h.405V54.93h.404v-2.633l.406-.203v-3.847l-.406-.203v-2.229l-.404-.202V44.4h-.405v-1.215l-.81-.407v-.81l-.81-.405v-.406h-.405v-.403h-.81v-.405q-1.014.202-.81-.405zm32.001-9.319h9.622l.201.407h1.42l.201.404h1.52v.404h.81v.406h.81v.405h.71q-.162.658.91.405v.406h.405v.405h.405v.405h.406v.404h.404v.407h.405v.404l.81.405v.81l.811.406q-.338 1.053.404.81v1.215h.406v1.215l.405.102v1.417l.405.203v26.634q-1.071-.252-.912.405h-1.519l-.1.406h-1.419l-.202.404h-1.823l-.202.406h-2.228l-.203.404h-11.646l-.1-.404h-1.824l-.1-.406h-1.217v-.404h-1.215v-.406h-.81v-.404h-.709q.16-.66-.91-.406v-.406h-.407v-.404h-.405v-.406h-.405v-.404h-.405v-.407h-.405v-.404l-.81-.404v-.81h-.405v-.811h-.405q.338-1.054-.405-.81v-1.215l-.405-.102v-7.595h.405v-1.215q.743.243.405-.81l.81-.405v-.812h.405v-.404h.405v-.404h.405v-.407h.405v-.404h.405v-.405h.405l.406-.81h.81v-.406h.81v-.405h.708q-.159-.657.912-.404v-.405h1.215l.102-.406h1.417l.203-.404h1.823l.203-.406h8.304l.101-.102V42.78h-.405v-.71q-.659.16-.405-.912h-.405l-.406-.808h-.809v-.405q-1.055.337-.81-.407h-1.925l-.203-.404h-4.759l-.102.404h-2.228l-.202.407h-1.418l-.1.404h-1.52q.16.658-.91.406v-.81h-.407v-.812h-.405q.338-1.05-.405-.81v-1.215l-.405-.1v-1.823l-.405-.203v-2.33q1.072.254.911-.405h1.115l.1-.406h1.115l.101-.404h1.823l.203-.404h2.228zm5.267 21.47v.406h-1.418l-.203.405h-1.012q0 .607-1.013.404l-.405.811h-.405v.405h-.405v.81h-.406v4.052h.406v.81l.81.404v.406h.405v.404q1.013-.202 1.013.406h1.012v.404h6.482q-.203-.607.81-.404V52.5h-1.215v-.405zm66.433-18.633h26.23l.202.405h1.823l.203.405h1.52v.404q1.052-.337.808.407h1.216q-.243.743.811.404l.404.81h.811l.404.81h.811v.406h.404v.404h.406v.405h.405l.405.81h.81v-.81l.81-.405v-.81h.406v-.404h.404l.405-.81h.81l.406-.81h.81v-.407h.81v-.404q1.053.338.81-.404h1.52l.202-.407h36.356v.407h1.62v.404h.811v.404h.708q-.159.66.912.407v.404h.405l.405.81h.81q-.203.608.406.406v.81l.81.404v.811h.405v.81h.405v.81h.405v.81h.405v.81h.405v.81h.405v.81h.405v.812h.406v.81h.404q-.337 1.052.405.809v1.215h.406v.811h.404v.81h.404v.81h.407v.81h.407v.81h.402v.81h.407v.81h.401q-.337 1.055.408.81v1.215h.401v.812h.413v.81h.407v.81h.401v.81h.407v.709q.653-.16.407.911l.803.405q-.204-.607.407-.405v-.81h.402v-1.215h.407v-.81h.412v-.81h.402v-.81h.407v-.81h.401v-.812h.402v-.81h.407v-.81h.401q-.328-1.051.407-.81v-1.214h.407v-.81h.407v-.812h.407v-.81h.407v-.81h.402v-.81h.407v-.81h.401v-.81h.407q-.337-1.054.407-.81v-1.215h.407v-.81h.396v-.81h.407v-.81h.402v-.812h.407v-.81h.407v-.81h.401q-.328-1.052.407-.81v-1.215h.407v-.709c.435.107.572-.197.402-.91.43.1.594-.035.511-.407H407v2.432h-.396v.81h-.407v.81h-.407v.81h-.402q.329 1.052-.407.81v1.215h-.407v.81h-.4v.81h-.408v.81h-.402v.81h-.412v.812h-.407v.81h-.402v.809h-.407v.81h-.407v.81h-.4v.81h-.408v.71c-.44-.106-.572.197-.407.912h-.402v1.215h-.4v.81h-.408v.81h-.407v.81h-.402v.81h-.407v.81h-.4v.81h-.408v.81h-.407v.81h-.402v.81h-.407v.812h-.412c.231.702.1.971-.402.81v1.215h-.407v.81h-.407v.81h-.4v.81h-.408v.81h-.407v.81h-.402v.81h-.407v.81h-.396v.81h-.407v.71q-.67-.159-.407.912-.611-.203-.407.404h-.808v.406c-.429-.102-.594.032-.512.404h-12.048v-.404h-.81v-.406h-.405v-.404h-.404v-.406l-.81-.404v-.811h-.406v-.81h-.405v-.812h-.405v-.809h-.405v-.81h-.405v-.81h-.406v-.81h-.405v-.81h-.404v-.81h-.406q.338-1.053-.405-.81v-1.215h-.405v-.811h-.405v-.81h-.405v-.81h-.405v-.81h-.405v-.81h-.405v-.81h-.405v-.812h-.406v-.81h-.405v-.81h-.404v-.81h-.406v-.81h-.405v-.81h-.405v-.81h-.405v-.81h-.405v-.71q-.659.16-.405-.91h-.405v-.81h-.405v-.812h-.406v-.81h-.404l-.405-.809h-.81v-.405q-1.054.338-.81-.406h-1.216l-.1-.404h-22.99v.404h-.708q.159.66-.912.406.338 1.052-.405.81v2.836h.405v.405h.404v.404q.639-.15.508.405h16.405l.203.406h2.632l.203.404h1.52v.406h.708q-.16.659.911.406l.406.81h.81v.404h.405v.404l.81.407v.81l.811.405v.709q.658-.16.404.911h.406v1.215l.405.102v1.417l.404.203v4.355l-.404.1v1.824l-.405.101v1.215h-.406v.709q-.658-.159-.404.91h-.406v.406l-.809.406v.81h-.81v.405h-.406l-.405.81h-.81v.406h-.81v.404q-1.055-.338-.81.406h-1.216l-.102.404h-23.798v-.404h-.405v-.406h-.405q.152-.637-.405-.507v-6.785q.638.152.506-.405h18.026l.102-.404h.81v-.405l.81-.405v-3.242h-.405v-.404h-.405v-.406q-.638.152-.506-.405h-18.837l-.202-.404h-1.823l-.1-.405h-1.217v-.405h-.81q.202-.609-.405-.407v1.52l-.405.203v1.418l-.406.1v1.217h-.404v1.215h-.406v.81h-.405v.709q-.658-.16-.404.91l-.81.407v.809h-.406v.405h-.405v.405h-.405v.405h-.405v.406h-.405v.403h-.406v.406h-.404l-.405.81h-.81l-.406.811h-.809v.405h-.81v.405q-1.055-.338-.81.406h-1.115l-.1.404h-1.217v.406h-1.924l-.202.404h-28.256V48.046q1.073.253.912-.406h8.811l.102.406h1.52v.404l.808.406v.81l.406.102v12.05q.638-.15.506.405h9.621v-.404h1.62v-.405h.811v-.405h.708q-.16-.66.912-.406v-.404h.405v-.406h.405v-.404h.405v-.405l.81-.406v-.81l.81-.406v-1.214h.405V54.93l.405-.1v-5.57h-.405v-1.116l-.405-.1V46.83l-.81-.405v-.81h-.405v-.406h-.405v-.406h-.405l-.405-.81h-.81l-.406-.809q-1.07.253-.91-.405h-1.115l-.1-.406h-1.824l-.202-.404h-21.775v-7.293h.406l.405-.809h.81z">
        <animate attributeName="fill" begin="0" calcMode="spline" dur="12"
          keySplines="0 0 1 1; 0 0 1 1; 0 0 1 1" keyTimes="0; 0.875; 0.9583333333333334; 1"
          repeatCount="indefinite"
          values="#002664; #002664; #fff; #fff" />
      </path>
      <clipPath id="c">
        <path stroke="#3f5787"
          d="M-357 82.04V22.12H70.459l-.299.598h-.299v.297h-.299v.598h-.3v3.889h.3v.598l.598.3v.298h.299v.3h.733l.162 35.281h-1.118l-.075-.073V35.948l-.299-.075v-.823q-.486.12-.299-.672l-.599-.3v-.297h-.897v-.3h-84.322q.18.549-.6.3v.298h-.6v.598h-.29q.105.472-.3.373v29.155l-.6.073v.3h-.6v.299h-.6l-.3.599h-.3v.298h-.29q.18.79-.3.673v.523h-.3v5.008q.48-.118.3.674h.3v.597l.59.299v.3h.3v.297c.53-.124.76-.023.68.3h.82l.07.3h8.6v1.122l.3.074v.896c.36-.118.47.08.3.598h.3v.598h.3v.598l.59.3v.599l.6.297v.3h.3v.299h.3v.297h.3v.301h.6l.29.599c.53-.125.76-.025.68.297h.52v.3h.9v.175zm428.437.436-5.227-.005.063-.25h.897q-.18-.55.598-.3v-.297h.597l.299-.599h.598l.3-.599h.299v-.297h.299v-.3h.299v-.298h.299v-.3h.299v-.599l.362-.18zm-70.053-.254h.9q-.18-.55.6-.3v-.298h.6v-.3h.59l.3-.6h.3v-.297h.3v-.299h.3v-.3h.3v-.297h.3v-.3h.3v-.298h.3v-.599l.59.298v.3h.3v.599l.6.297v.3h.3v.299h.3v.297h.3v.301h.6l.29.599c.53-.125.76-.025.68.297h.52v.3h.9v.191l-10.512-.01zm15.253 0h.896q-.179-.55.598-.3v-.298h.599v-.3h.598l.299-.6h.299v-.297h.298v-.299h.3v-.3h.298v-.297h.3v-.3h.298v-.298h.3q-.187-.793.299-.675v-.522h.299v-.599h.299v-.597h.299v-1.495q.448.15.299-.3h.598v-.299h.598v-.3h.599q-.15-.446.298-.297v-.599l.598-.299v-.896l.299-.076v-2.915h10.466v2.617l.298.076v.895h.298v.599l.599.297v.3h.3v.299h.298v.3q.792-.187.673.299h.823v1.42l.298.076v.895q.549-.178.299.599h.3v.599h.298v.598l.598.297v.3h.3v.299h.298v.3h.3v.297h.298v.299h.3v.3h.298v.298q.792-.185.673.3h.524v.298h.598v.3h.896v.228l-29.65-.031zm34.386 0h.897q-.18-.55.598-.3v-.298h.598l.299-.599h.598l.299-.599h.299v-.297h.299v-.3h.299v-.298h.299v-.3h.299v-.599q.449.15.299-.297l.598.297v.599l.598.3v.297h.299v.3h.299v.299h.299v.297h.299v.301h.299v.298q.791-.185.673.3h.524v.298h.597v.3h.897v.245l-10.524-.011z"
          style="transform-box:fill-box" transform-origin="center">
          <animateTransform additive="sum" attributeName="transform" begin="0"
            calcMode="spline" dur="12" keySplines="0 0 1 1; 0 0 1 1; 0 0 1 1; 0 0 1 1"
            keyTimes="0; 0.7034295366789199; 0.7822527758091188; 0.8438543042753309; 1"
            repeatCount="indefinite" type="translate"
            values="0, 0; 0, 0; 240.0042, 0; 428, 0; 428, 0" />
        </path>
      </clipPath>
    </g>
    <path
      d="M-40.965 22.077h2.615l.076.297h.897v.3h.597v.299h.524q-.118.488.673.3v.297h.299v.302h.299v.297h.299v.3h.299v.298h.299v.3h.299v.299l.598.299v.597h.298v.598h.3v.524q.486-.119.299.672h.3v1.122l.298.15v2.018h4.709l.075.3h1.196v.297h.598v.3h.524q-.118.485.672.298v.3h.299v.298h.299v.3h.299v.3h.3v.297h.298v.3h.3v.299l.598.3v.597l.598.299v.822q.485-.118.298.674h.3v1.12q.486-.117.298.672h2.019l.074.3h.898v.3h.522q-.117.484.673.298v.3h.3v.298h.298v.3h.3v.299l.598.299v.598h.298q-.249.777.3.598v.896l.299.076v1.12l.3.075v1.346l.298.15v1.345l.299.075v1.12l.299.15v1.346q.508-.119.298 1.195l.3.15v1.42h7.102l.074.3h.822q-.117.486.673.299v.299h.3v.299h.298v.299h.299v.299l.598.298q-.186.793.299.675v11.81L0 68.796v4.71q-.55-.18-.3.597h-.598v.3q-.472-.112-.373.3h-4.411q.186.79-.298.672v1.121h-.3q.186.792-.298.674v.822l-.6.3v.597h-.3v.299l-.597.3v.597q-.447-.15-.298.299h-.598v.297h-.299l-.3.6h-.597v.3h-.599v.297q-.776-.249-.598.3h-.896l-.074.299h-4.412v-.299h-.822l-.074-.3h-.823q.118-.484-.673-.297v-.3h-.298l-.3-.6h-.597v-.297h-.3v-.299h-.298v-.3l-.598-.297v-.599l-.598-.3v-.597h-.3v-.6h-.298q.249-.774-.3-.597v-1.12l-.299-.075v-.897h-15.548v1.121l-.3.075v.822l-.299.073v.824q-.484-.12-.298.674l-.598.297v.599h-.299v.3h-.299v.297h-.299v.3h-.299v.299h-.299l-.3.599h-.598l-.299.597h-.597v.299q-.778-.25-.598.3h-.897l-.075.297h-4.71v-.297h-.897v-.3h-.597v-.299h-.524q.118-.485-.673-.3v-.297h-.299v-.302h-.299v-.297h-.299v-.299h-.299v-.3h-.299v-.297l-.598-.3v-.599l-.598-.297q.15.446-.299.297v.599h-.299v.3h-.299v.297h-.299v.3h-.299v.299h-.299l-.299.599h-.598l-.299.597h-.598v.299q-.777-.25-.598.3h-.897l-.076.297h-4.709v-.297h-.896v-.3h-.598v-.299h-.524q.12-.485-.673-.3v-.297h-.298v-.302h-.3v-.297h-.298v-.299h-.3v-.3h-.298v-.297h-.3v-.3l-.598-.299v-.597h-.298v-.6h-.3q.25-.776-.299-.597v-.897l-.298-.075v-1.42h-.823q.12-.487-.673-.3v-.3h-.298v-.297h-.3v-.3l-.599-.299v-.597h-.298v-.897l-.298-.075V69.02h-10.466v2.915l-.299.075v.898l-.598.298v.599q-.448-.15-.298.297h-.599v.3h-.598v.3h-.598q.15.448-.299.3v1.493h-.299v.599h-.299v.597h-.299v.524q-.486-.119-.299.674h-.3v.297h-.298v.3h-.3v.299h-.298v.3h-.3v.297h-.298v.299h-.299l-.299.599h-.598v.3h-.599v.297q-.777-.249-.598.3h-.896l-.075.299h-4.708v-.299h-.9v-.3h-.52c.08-.323-.15-.422-.68-.297l-.29-.599h-.6v-.3h-.3v-.299h-.3v-.297h-.3v-.3l-.6-.299v-.597h-.3v-.3l-.59-.299v.599h-.3v.297h-.3v.3h-.3v.299h-.3v.3h-.3v.297h-.3v.299h-.3l-.3.599h-.59v.3h-.6v.297q-.78-.249-.6.3h-.9l-.07.299h-4.71v-.299h-.9v-.3h-.52c.08-.323-.15-.422-.68-.297l-.29-.599h-.6v-.3h-.3v-.299h-.3v-.297h-.3v-.3l-.6-.299v-.597l-.59-.3v-.599h-.3v-.599h-.3c.17-.516.06-.715-.3-.597v-.897l-.3-.073v-1.123h-8.6l-.07-.299h-.82c.08-.324-.15-.424-.68-.3v-.297h-.3v-.3l-.59-.299v-.597h-.3q.18-.792-.3-.674v-5.009h.3v-.522q.48.118.3-.672h.29v-.3h.3l.3-.599h.6v-.297h.6v-.3l.6-.075V35.009q.405.099.3-.373h.29v-.599h.6v-.297q.78.25.6-.3h84.322v.3h.897v.297l.599.3q-.187.792.299.672v.822l.299.077v28.255l.075.075h2.616V30.524l-.299-.075v-.599h-.3l-.299-.598q-.79.188-.672-.297h-.822v-.3h-.299v-.299l-.598-.3v-.598h-.3v-3.887h.3v-.599h.299v-.298h.299zm1.196 2.392v2.092h.897q-.15.45.598.3l.299.598h.299v.3h.299v.297h.299v.3h.298v.598h.3q-.149.746.298.747v1.046q.45-.15.3.599h1.794v-1.047l-.299-.15v-.896h-.299v-.896q-.598.149-.299-.598l-.598-.3v-.599l-.599-.299v-.3h-.298v-.297h-.3v-.3q-.747.15-.597-.299h-.598v-.297h-.598v-.3h-.599v-.299zm3.887 9.27v5.38h10.764q-.15.45.598.3v.898h.3q.15.447-.3.447v.749q-.748-.15-.598.297h-10.764v24.221q-.45-.15-.3.3h-.298v.298h-.598v.298h-3.887v.598l.598.3v.299h.298q-.15.748.3.748v.448h.298v.599h.299v.895l.3.152v1.046h15.548v-.897h.299v-.898h.3v-.897q.598.15.298-.597l.598-.299v-.599l.598-.3v-.297h.3v-.3h.298v-.299h.3v-.299h.298v-.299h.299v-.299h.598l.3-.597q.748.15.748-.3h.746l.15-.298h.749v-.3h3.587l.149.3h1.047v.297q.748-.15.748.3h.448v.3h.599v.299h.597v.298h.299v.3h.299v.298h.299v.298h.298v.3q.45-.149.45.298h4.036V57.06h-.299v-.598h-.3v-.298q-.447.15-.298-.299h-8.522q.001-.448-.448-.299v-.3h-.299v-1.045l-.3-.15v-1.346l-.298-.148V51.38h-.3v-1.346l-.298-.15v-1.196h-.3v-1.345l-.298-.15v-1.346l-.3-.15v-1.046l-.298-.149v-.748q-.448 0-.298-.746l-.599-.3v-.3h-.3v-.297h-.598v-.3h-3.887l-.298-.597h-.3v-1.645q-.447 0-.298-1.196-.45 0-.3-.747h-.299v-.598h-.299v-.599l-.597-.3v-.298h-.3v-.299h-.298v-.3h-.3v-.297q-.748.148-.598-.3h-.599v-.298h-.597v-.3h-1.047l-.148-.298zm-90.898 2.092q.15.449-.3.298v27.81q.45-.15.3.298h82.825q-.15-.447.299-.298v-27.66q-.449 0-.299-.449zm-2.1 30.798v.298h-.89q.15.45-.3.3v.599h-.3v3.289q.45-.15.3.299h.3v.3h.3v.297h8.37v-.896h.3v-1.046q.45 0 .3-.749h.3v-.597h.3v-.6l.59-.297v-.3h.3v-.298h.3v-.3h-3.14l-.15-.299zm14.66.298q.15.6-.6.3v.298h-.6v.3h-.6l-.3.6h-.29v.297h-.31v.3h-.29v.298h-.3v.599l-.6.297q.3.75-.3.599v1.197h-.3v2.99h.3v.897q.6-.15.3.597h.3v.599l.6.297v.3h.29v.6c.31-.1.4 0 .31.297h.59l.3.599q.75-.15.75.3h.45v.297h.89v.3h2.4v-.3h.89l.15-.297h.75l.3-.599h.6l.3-.597h.3v-.3h.3v-.3h.29v-.597l.6-.3q-.15-.748.3-.597v-.897h.3v-1.496h.3v-.897h-.3v-1.495h-.3q.15-.747-.3-.599v-.597h-.3v-.597l-.59-.3v-.597q-.45.149-.3-.299h-.6l-.3-.599h-.3v-.3q-.75.15-.6-.297h-.9v-.3zm8.37 0 .3.598h.3v.599q.45-.15.3.3h.59v-.599l.6-.3v-.297h.3v-.3zm6.877 0q.151.6-.597.3v.298h-.6v.3h-.6l-.3.6h-.3v.297h-.3v.3h-.29v.298h-.3v.599l-.6.297v.899l-.3.148v.748h-.3v2.692h.3v1.195q.45-.149.3.599h.3v.597l.6.299v.3h.29v.299h.3v.3h.3v.297h.3v.3h.3v.299h.6v.3q.75-.15.75.297h1.044v.3h2.093v-.3h.896l.15-.297h.748l.298-.599h.598l.3-.597h.3v-.3h.298v-.3h.3v-.3h.298v-.597h.3v-.597h.297q-.15-.747.3-.597v-1.498h.298V72.76l-.298-.15v-1.045l-.3-.15v-.898q-.597.15-.298-.598l-.598-.299v-.299h-.299v-.597q-.449.149-.299-.299h-.599l-.299-.599h-.299v-.3q-.747.15-.598-.297h-.896v-.3zm8.371 0 .3.598h.298v.599l.6.3q-.15.745.298.746v.45h.3v.896l.298.15v1.047h.597v-4.485q-.447.15-.298-.3zm18.838 0q.15.45-.298.3v4.486q.447-.15.298.299h.3v-1.346q.447.001.298-.748h.3v-.897l.597-.299v-.598l.598-.298q-.3-.747.3-.598v-.3zm7.176 0v.3h-.896l-.3.599h-.598l-.298.599h-.299v.297h-.299v.3h-.3v.298h-.299v.3h-.298q.15.748-.3.748v.447h-.298v.599h-.3V75.3h.3v.898q.447-.15.298.597l.598.3v.597l.6.3v.3h.298v.297h.3v.3q.747-.15.746.299h.45v.3h.597v.297h.897v.3h2.392v-.3h.897q-.15-.597.598-.297v-.3h.598l.299-.599h.597l.3-.597h.299v-.6l.598-.297q-.15-.749.299-.599V75.9h.299v-.897h.299v-3.14l-.299-.148v-.9q-.599.152-.299-.597h-.299v-.597l-.598-.3v-.298h-.299v-.3h-.3v-.297h-.298v-.301h-.299v-.298h-.598v-.3h-.598v-.298q-.748.15-.597-.3zm8.373 0v.598l.598.3v.299h.299v.599q.598.15.299-.6l.599-.297v-.598h.298v-.3zm6.877 0v.3h-.897l-.299.599h-.597l-.299.599h-.3v.297h-.299v.3h-.299v.298h-.299v.3h-.299q.149.748-.299.748v.447h-.299v.898h-.299v3.588h.299v.897q.449-.15.299.597l.598.3v.597l.598.3v.3h.299v.297h.3v.3q.746-.15.746.299h.449v.3h.598v.297h.897v.3h2.392v-.3h.897q-.149-.597.599-.297v-.3h.598l.299-.599h.597l.299-.597h.299v-.6l.598-.297q-.15-.749.3-.599V75.9h.299v-.897h.299v-3.14l-.299-.148v-.9q-.599.152-.299-.597h-.3v-.597l-.598-.3v-.298h-.299v-.3h-.299v-.297h-.298v-.301h-.299v-.298h-.598v-.3h-.598v-.298q-.748.15-.599-.3zm32.893 0q.148.6-.599.3v.298h-.598v.3h-.598l-.3.6h-.298v.297h-.3v.3h-.298v.298h-.3q.15.75-.299.749v.447h-.298v.599h-.3v.897h-.298v2.69h.298V75.9q.45-.15.3.597h.298v.599l.599.297v.3h.298v.3h.3v.3h.298v.297h.3v.3h.298v.299h.598v.3q.748-.15.748.297h1.047v.3h2.093v-.3h.897l.149-.297h.748l.298-.599h.598l.3-.597h.299v-.3h.3v-.3h.298v-.3h.299c-.1-.495 0-.697.299-.597v-.597h.299v-.597h.299v-1.198h.298v-1.645l-.298-.148v-1.046l-.3-.15v-.898h-.298v-.598l-.598-.299v-.597l-.598-.3v-.297h-.299v-.301h-.598l-.3-.599q-.746.15-.598-.297h-.896v-.3zm10.165 3.29q-.15.45.3.3v.897q.447-.15.298.597h3.289v-1.794z"
      fill='#002664'
      style="transform-box:fill-box" transform-origin="center">
      <animateTransform additive="sum" attributeName="transform" begin="0"
        calcMode="spline" dur="12" keySplines="0 0 1 1; 0 0 1 1; 0 0 1 1"
        keyTimes="0; 0.6666666666666666; 0.875; 1" repeatCount="indefinite" type="translate"
        values="0, 0; 0, 0; 633, 0; 633, 0" />
    </path>
    <animate attributeName="visibility" begin="0" calcMode="spline" dur="12"
      keySplines="0 0 1 1; 0 0 1 1" keyTimes="0; 0.6666666666666666; 1" repeatCount="indefinite"
      values="hidden; visible; visible" />
  </g>
</svg>